<svg
                    width="18"
                    height="18"
                    viewBox="0 0 18 18"
                    fill="none"
                    xmlns="http://www.w3.org/2000/svg"
                >
                    <g clip-path="url(#clip0_126_7338)">
                        <path
                            d="M0 1.96875C0 1.74498 0.0888948 1.53037 0.247129 1.37213C0.405362 1.2139 0.619974 1.125 0.84375 1.125H5.62837C7.00875 1.125 8.235 1.78875 9.00338 2.81363C9.39614 2.28856 9.90609 1.86247 10.4926 1.5693C11.0791 1.27614 11.726 1.124 12.3817 1.125H17.1574C17.3812 1.125 17.5958 1.2139 17.754 1.37213C17.9122 1.53037 18.0011 1.74498 18.0011 1.96875V13.7813C18.0011 14.005 17.9122 14.2196 17.754 14.3779C17.5958 14.5361 17.3812 14.625 17.1574 14.625H12.087C11.7546 14.625 11.4254 14.6905 11.1183 14.8177C10.8112 14.9449 10.5322 15.1313 10.2971 15.3664L9.59738 16.065C9.43917 16.223 9.22472 16.3118 9.00113 16.3118C8.77753 16.3118 8.56308 16.223 8.40488 16.065L7.70512 15.3664C7.47007 15.1313 7.19103 14.9449 6.88392 14.8177C6.57681 14.6905 6.24766 14.625 5.91525 14.625H0.84375C0.619974 14.625 0.405362 14.5361 0.247129 14.3779C0.0888948 14.2196 0 14.005 0 13.7813L0 1.96875ZM8.15737 13.5833L8.16188 7.87613L8.15962 5.34151C8.15903 4.67057 7.89208 4.02731 7.41744 3.5531C6.94281 3.07888 6.29931 2.8125 5.62837 2.8125H1.6875V12.9375H5.91412C6.70773 12.9375 7.48525 13.1613 8.15737 13.5833ZM9.84938 5.34376L9.84488 13.581C10.5166 13.1604 11.2933 12.9373 12.0859 12.9375H16.3125V2.8125H12.3806C11.7093 2.8125 11.0655 3.07919 10.5908 3.55389C10.1161 4.02859 9.84938 4.67243 9.84938 5.34376Z"
                            fill="#4B5563"
                        />
                    </g>
                    <defs>
                        <clipPath id="clip0_126_7338">
                            <rect width="18" height="18" fill="white" />
                        </clipPath>
                    </defs>
                </svg>
