<svg
                    width="18"
                    height="18"
                    viewBox="0 0 18 18"
                    fill="none"
                    xmlns="http://www.w3.org/2000/svg"
                >
                    <path
                        d="M7.76925 0.744486C8.1183 0.464865 8.5522 0.3125 8.99944 0.3125C9.44668 0.3125 9.88058 0.464865 10.2296 0.744486L16.1359 5.46949C16.6028 5.84299 16.875 6.40886 16.875 7.00736V14.9037C16.875 15.4259 16.6676 15.9266 16.2984 16.2959C15.9292 16.6651 15.4284 16.8725 14.9062 16.8725H10.9688C10.745 16.8725 10.5304 16.7836 10.3721 16.6254C10.2139 16.4671 10.125 16.2525 10.125 16.0287V10.1225H7.875V16.0287C7.875 16.2525 7.78611 16.4671 7.62787 16.6254C7.46964 16.7836 7.25503 16.8725 7.03125 16.8725H3.09375C2.57161 16.8725 2.07085 16.6651 1.70163 16.2959C1.33242 15.9266 1.125 15.4259 1.125 14.9037V7.00624C1.125 6.40886 1.39725 5.84299 1.86412 5.46949L7.76925 0.744486ZM9.1755 2.06186C9.12566 2.02206 9.06378 2.00039 9 2.00039C8.93622 2.00039 8.87434 2.02206 8.8245 2.06186L2.91825 6.78686C2.88516 6.81328 2.85847 6.84684 2.84016 6.88502C2.82184 6.9232 2.81239 6.96502 2.8125 7.00736V14.9037C2.8125 15.059 2.9385 15.185 3.09375 15.185H6.1875V9.27874C6.1875 9.05496 6.27639 8.84035 6.43463 8.68211C6.59286 8.52388 6.80747 8.43499 7.03125 8.43499H10.9688C11.1925 8.43499 11.4071 8.52388 11.5654 8.68211C11.7236 8.84035 11.8125 9.05496 11.8125 9.27874V15.185H14.9062C14.9808 15.185 15.0524 15.1554 15.1051 15.1026C15.1579 15.0499 15.1875 14.9783 15.1875 14.9037V7.00624C15.1874 6.96408 15.1779 6.92248 15.1596 6.88451C15.1413 6.84654 15.1147 6.81317 15.0818 6.78686L9.1755 2.06186Z"
                        fill="#4B5563"
                    />
                </svg>
