<svg
                    width="18"
                    height="18"
                    viewBox="0 0 18 18"
                    fill="none"
                    xmlns="http://www.w3.org/2000/svg"
                >
                    <path
                        d="M12.6893 3.61982L17.4705 8.40107C17.6285 8.55928 17.7173 8.77373 17.7173 8.99732C17.7173 9.22092 17.6285 9.43537 17.4705 9.59357L12.6893 14.3748C12.5861 14.4859 12.4549 14.5671 12.3095 14.6098C12.1641 14.6526 12.0099 14.6554 11.8631 14.6178C11.7162 14.5803 11.5822 14.5038 11.4752 14.3965C11.3682 14.2892 11.292 14.155 11.2549 14.0081C11.2173 13.8614 11.2199 13.7073 11.2625 13.562C11.305 13.4167 11.386 13.2855 11.4968 13.1823L15.6818 8.99732L11.4968 4.81232C11.3857 4.70919 11.3045 4.57801 11.2617 4.43261C11.219 4.2872 11.2162 4.13296 11.2538 3.98612C11.2913 3.83928 11.3678 3.70528 11.4751 3.59825C11.5824 3.49122 11.7166 3.41511 11.8635 3.37795C12.0102 3.34035 12.1643 3.34298 12.3096 3.38554C12.4549 3.4281 12.586 3.50903 12.6893 3.61982ZM5.30926 3.61982C5.4693 3.47086 5.68086 3.38975 5.89947 3.39352C6.11807 3.3973 6.3267 3.48567 6.48151 3.64007C6.63591 3.79488 6.72428 4.00351 6.72806 4.22211C6.73183 4.44072 6.65072 4.65228 6.50176 4.81232L2.31676 8.99732L6.50176 13.1823C6.61282 13.2855 6.69402 13.4166 6.73678 13.562C6.77955 13.7074 6.7823 13.8617 6.74476 14.0085C6.70721 14.1554 6.63076 14.2894 6.52345 14.3964C6.41614 14.5034 6.28194 14.5795 6.13501 14.6167C5.98833 14.6543 5.83424 14.6517 5.68893 14.6091C5.54362 14.5665 5.41247 14.4856 5.30926 14.3748L0.528008 9.59357C0.370001 9.43537 0.28125 9.22092 0.28125 8.99732C0.28125 8.77373 0.370001 8.55928 0.528008 8.40107L5.30926 3.61982Z"
                        fill="#4B5563"
                    />
                </svg>
